<svg id="Layer_1" data-name="Layer 1" xmlns="http://www.w3.org/2000/svg" viewBox="0 0 396 396"><defs><style>.cls-1,.cls-3{fill:#231f20;}.cls-2{fill:#bcbec0;}.cls-2,.cls-3{fill-rule:evenodd;}.cls-4{fill:#58595b;}</style></defs><title>MAMAFILM LOGO FINAL 1</title><path class="cls-1" d="M265.25,226.77v-4.24c0-.91-.38-1.46-1.27-1.46a2.4,2.4,0,0,0-1.82,1.09v4.61h-.37v-4.24c0-.91-.38-1.46-1.27-1.46a2.46,2.46,0,0,0-1.83,1.11v4.59h-.36v-5.89h.36v.93a2.59,2.59,0,0,1,1.89-1.07,1.44,1.44,0,0,1,1.52,1.12,2.46,2.46,0,0,1,1.94-1.12c1.07,0,1.57.62,1.57,1.79v4.24Z"/><path class="cls-1" d="M267.39,223.82a2.9,2.9,0,0,1,2.77-3.08c1.8,0,2.72,1.45,2.72,3.08v.12H267.8a2.52,2.52,0,0,0,2.47,2.65,2.69,2.69,0,0,0,2.05-.89l.22.23a2.94,2.94,0,0,1-2.27,1A2.88,2.88,0,0,1,267.39,223.82Zm2.75-2.75a2.48,2.48,0,0,0-2.34,2.54h4.7A2.42,2.42,0,0,0,270.14,221.07Z"/><path class="cls-1" d="M279.09,226.77v-1a2.59,2.59,0,0,1-2.11,1.14c-1.59,0-2.64-1.22-2.64-3.09s1.05-3.09,2.64-3.09a2.55,2.55,0,0,1,2.11,1.16v-3.26h.37v8.13Zm0-1.35v-3.16a2.56,2.56,0,0,0-2.11-1.19c-1.44,0-2.24,1.22-2.24,2.76s.8,2.76,2.24,2.76A2.54,2.54,0,0,0,279.09,225.42Z"/><path class="cls-1" d="M281.38,219.52a.37.37,0,0,1,.35-.36.36.36,0,0,1,.36.36.36.36,0,0,1-.36.35A.36.36,0,0,1,281.38,219.52Zm.17,7.25v-5.89h.37v5.89Z"/><path class="cls-1" d="M287.82,226.77v-.72a2.62,2.62,0,0,1-2,.87,2,2,0,1,1,0-3.93,2.62,2.62,0,0,1,2,.87v-1.33a1.49,1.49,0,0,0-1.66-1.46,2.29,2.29,0,0,0-1.89.92l-.28-.24a2.58,2.58,0,0,1,2.17-1c1.16,0,2,.58,2,1.78v4.25Zm0-1.08v-1.47a2.43,2.43,0,0,0-1.94-.9,1.64,1.64,0,1,0,0,3.27A2.43,2.43,0,0,0,287.82,225.69Z"/><path class="cls-1" d="M297.24,226.77v-.72a2.6,2.6,0,0,1-2,.87,2,2,0,1,1,0-3.93,2.6,2.6,0,0,1,2,.87v-1.33a1.49,1.49,0,0,0-1.66-1.46,2.29,2.29,0,0,0-1.89.92l-.27-.24a2.57,2.57,0,0,1,2.16-1c1.16,0,2,.58,2,1.78v4.25Zm0-1.08v-1.47a2.4,2.4,0,0,0-1.94-.9,1.64,1.64,0,1,0,0,3.27A2.4,2.4,0,0,0,297.24,225.69Z"/><path class="cls-1" d="M299.7,226.77v-8.13h.36v3.26a2.58,2.58,0,0,1,2.12-1.16c1.59,0,2.64,1.24,2.64,3.09s-1.05,3.09-2.64,3.09a2.62,2.62,0,0,1-2.12-1.14v1Zm2.48-.18c1.44,0,2.23-1.21,2.23-2.76s-.79-2.76-2.23-2.76a2.59,2.59,0,0,0-2.12,1.19v3.16A2.58,2.58,0,0,0,302.18,226.59Z"/><path class="cls-1" d="M306.27,223.82a2.77,2.77,0,1,1,2.75,3.1A2.82,2.82,0,0,1,306.27,223.82Zm5.08,0a2.37,2.37,0,1,0-4.68,0,2.51,2.51,0,0,0,2.35,2.77C310.53,226.59,311.35,225.26,311.35,223.82Z"/><path class="cls-1" d="M317.5,226.77v-.9a3,3,0,0,1-2.13,1c-1.17,0-1.84-.51-1.84-1.9v-4.14h.37V225c0,1.23.61,1.57,1.52,1.57a2.72,2.72,0,0,0,2.08-1.08v-4.63h.37v5.89Z"/><path class="cls-1" d="M320,225.74v-4.53h-1v-.33h1v-1.6h.36v1.6h1.19v.33H320.4v4.53c0,.49.19.85.64.85a.94.94,0,0,0,.69-.32l.22.28a1.2,1.2,0,0,1-.91.37C320.35,226.92,320,226.46,320,225.74Z"/><path class="cls-1" d="M333.17,226.77v-4.24c0-.91-.38-1.46-1.27-1.46a2.43,2.43,0,0,0-1.83,1.09v4.61h-.36v-4.24c0-.91-.38-1.46-1.27-1.46a2.46,2.46,0,0,0-1.83,1.11v4.59h-.36v-5.89h.36v.93a2.57,2.57,0,0,1,1.89-1.07,1.44,1.44,0,0,1,1.52,1.12,2.46,2.46,0,0,1,1.94-1.12c1.07,0,1.57.62,1.57,1.79v4.24Z"/><path class="cls-1" d="M335.31,223.82a2.76,2.76,0,1,1,2.74,3.1A2.82,2.82,0,0,1,335.31,223.82Zm5.08,0a2.37,2.37,0,1,0-2.34,2.77A2.49,2.49,0,0,0,340.39,223.82Z"/><path class="cls-1" d="M349.49,226.77v-4.24c0-.91-.38-1.46-1.27-1.46a2.43,2.43,0,0,0-1.83,1.09v4.61H346v-4.24c0-.91-.38-1.46-1.27-1.46a2.46,2.46,0,0,0-1.83,1.11v4.59h-.36v-5.89h.36v.93a2.57,2.57,0,0,1,1.89-1.07,1.44,1.44,0,0,1,1.52,1.12,2.46,2.46,0,0,1,1.94-1.12c1.07,0,1.57.62,1.57,1.79v4.24Z"/><path class="cls-1" d="M351.43,226l.3-.27a2.24,2.24,0,0,0,1.86.88c1.08,0,1.74-.59,1.74-1.37,0-1.8-3.78-.86-3.78-2.92,0-.87.73-1.56,2-1.56a2.43,2.43,0,0,1,2,.89l-.27.24a2.08,2.08,0,0,0-1.76-.8c-1,0-1.63.53-1.63,1.23,0,1.64,3.78.69,3.78,2.92,0,.92-.69,1.7-2.11,1.7A2.61,2.61,0,0,1,351.43,226Z"/><path class="cls-2" d="M279.06,190.44a11.85,11.85,0,0,0-1.18-3.45,10.66,10.66,0,0,0-2.53-3.12c.46,0,.88,0,1.29,0s.43-.12.42-.43c0-.5,0-1,0-1.49,0-.64,0-.65-.68-.66-1.85,0-3.71,0-5.57,0-.43,0-.59-.07-.58-.55,0-.21,0-.42,0-.63h-.39v.73c0,.71.06.77.75.77,1.89,0,3.78,0,5.67,0,.44,0,.59.14.55.56a6.46,6.46,0,0,0,0,.88c0,.41-.13.54-.53.54-1.89,0-3.78,0-5.67,0-.69,0-.69,0-.69.67,0,2.49,0,5,0,7.47,0,1.77-.11,3.54-.05,5.3s.08,3.36.06,5.05c0,1.28-.13,2.56-.07,3.85.09,1.92.09,3.85.07,5.77,0,.95-.11,1.91-.07,2.87a.75.75,0,0,1,0,.26c-.08.29.3.63-.05.86s-.57.06-.86.06c-1.16,0-1.16,0-1.16-1.14q0-15.14,0-30.27c0-.75,0-.75-.77-.75h-4.43c-.36,0-.5-.09-.47-.46a6.41,6.41,0,0,0,0-1c0-.4.1-.54.51-.53,1.52,0,3,0,4.54,0,.46,0,.65-.13.64-.62s0-.72,0-1.09l-.32,0c0,.12,0,.23,0,.34,0,.44-.16.56-.53.48a9.09,9.09,0,0,0-1.47-.11c-.94,0-1.87,0-2.81,0a21.44,21.44,0,0,0-3.57.49,23.42,23.42,0,0,0-3.37.94.77.77,0,0,1-.59-.06,9.7,9.7,0,0,0-1.45-.53c-.76-.18-1.5-.37-2.27-.49s-1.6-.26-2.41-.34c-1.43-.13-2.87.06-4.32-.06a23.78,23.78,0,0,0-7.56.57c-.75.18-1.51.49-2.24-.08,0,0-.07,0-.1,0a15.67,15.67,0,0,0-4.58-.43,15,15,0,0,0-4.39.95,10.34,10.34,0,0,0-2.29,1.12.7.7,0,0,1-.92.05,8,8,0,0,0-1.67-.8c-.7-.26-1.44-.42-2.12-.69a2.92,2.92,0,0,0-1.7-.14c-.07,0-.13,0-.19,0-.4-.29-.91-.22-1.35-.34a14.19,14.19,0,0,0-3.57-.24c-.4,0-.78.3-1.13.19a5,5,0,0,0-2-.1,15,15,0,0,0-3.27.63,15.72,15.72,0,0,0-2.26.86c-.65.31-1.26.72-1.89,1.09-.17.1-.39.11-.48-.07s-.46-.4-.66-.62a4.2,4.2,0,0,0-1.6-1,7.58,7.58,0,0,0-1.88-.64c-.72-.07-1.44-.31-2.18-.34a16.19,16.19,0,0,0-3.26.2,20.51,20.51,0,0,0-2.24.37,10.47,10.47,0,0,0-2.75,1.07c-.08,0-.12.09-.21,0a9.24,9.24,0,0,0-3.15-1.25,13.86,13.86,0,0,0-5.48-.14c-.63.1-1.28.45-1.88.5a14.87,14.87,0,0,1-5.23-.31,16,16,0,0,0-4.56-.41,8.79,8.79,0,0,0-3.9.45.19.19,0,0,1-.15,0,2.16,2.16,0,0,0-1.26-.32,17.85,17.85,0,0,0-3.58,0c-.61,0-1.18.41-1.8.2a8.26,8.26,0,0,0-2.3-.34,24.25,24.25,0,0,0-4.26.06,5.77,5.77,0,0,1-1.38.12c-.18,0-.35-.18-.54-.09a10.23,10.23,0,0,1-2.13.38,4.86,4.86,0,0,0-1,.19,3.47,3.47,0,0,1-1.54.24c-1,0-2,0-3.05,0-.14,0-.34-.07-.42.1s-.31.14-.41.08a8,8,0,0,0-2.47-.79,15,15,0,0,0-8,.67c-.57.2-1,.45-1.5,0a.66.66,0,0,0-.15-.05,11.76,11.76,0,0,0-2.8-.78,15.82,15.82,0,0,0-3.22-.13c-.8,0-1.58.75-2.42.08a.33.33,0,0,0-.1,0c-2.19,0-4.38,0-6.57,0a9,9,0,0,0-3.78.8.55.55,0,0,1-.4,0,6.58,6.58,0,0,0-1.51-.52,11.43,11.43,0,0,0-2.39-.37,10.53,10.53,0,0,0-3.48.36A2,2,0,0,1,98,181a11.72,11.72,0,0,0-4.71-.39,7.3,7.3,0,0,0-1.57.32,4.62,4.62,0,0,1-1.19.36c-2,0-4,.24-6-.47a11.07,11.07,0,0,0-3.77-.23,11.56,11.56,0,0,0-3.13.6,5.55,5.55,0,0,1-1.45.23c-.39,0-.79,0-1.19,0s-.62.12-.58.58a.73.73,0,0,1-.36.83,14.13,14.13,0,0,0-2.49,2c-.49.5-.93,1-1.41,1.56a9.13,9.13,0,0,0-1.47-2.54,9,9,0,0,0-5.43-3,6.44,6.44,0,0,0-1.24-.22,19.52,19.52,0,0,0-4.57.38,18.71,18.71,0,0,0-4.07,1.56,13.79,13.79,0,0,0-3.58,2.77c0-.25,0-.41,0-.57,0-.91,0-1.82,0-2.73,0-.5-.15-.59-.6-.58-2.73,0-5.47,0-8.2,0-.69,0-.7,0-.7.68q0,16.57,0,33.16c0,.47.13.62.61.62q4.16,0,8.31,0c.45,0,.59-.11.59-.59,0-7.22,0-14.44,0-21.66a1.7,1.7,0,0,1,.37-1.14,9.67,9.67,0,0,1,4-3,6.07,6.07,0,0,1,3.32-.39,5.23,5.23,0,0,1,2,.67,4.74,4.74,0,0,1,1.93,4.1c.07,7.15,0,14.3,0,21.45,0,.4.1.52.51.52q4.2,0,8.41,0c.47,0,.59-.13.59-.59,0-7.14,0-14.27,0-21.41a2.23,2.23,0,0,1,.53-1.68,9.68,9.68,0,0,1,3-2.3v25.18c0,.12,0,.24,0,.36,0,.34.09.44.42.43,2.79-.08,5.56.12,8.34.09,3.35,0,6.69,0,10-.07,4.28-.15,8.55.15,12.82.08a.74.74,0,0,1,.21,0c.07,0,.18,0,.19,0,.19.45.65.41,1,.45a12.54,12.54,0,0,0,4.05.24c.74-.14,1.49-.14,2.21-.32a14.46,14.46,0,0,1,4.19-.52c.4,0,.77.12,1.17.11,3.68,0,7.36,0,11,0,.76,0,.76,0,.76-.77V190.07a1.17,1.17,0,0,1,.05-.59c.18,0,.23.15.37.16a.88.88,0,0,1,.35.15,4.69,4.69,0,0,1,1.9,4c.08,1.79,0,3.58,0,5.36a1.12,1.12,0,0,1-.13.53,12.31,12.31,0,0,0-.91,2.41,13.9,13.9,0,0,0-.3,3.86,9.7,9.7,0,0,0,1,4.16,3.13,3.13,0,0,1,.37,1.51c0,1.17,0,2.34,0,3.51,0,.75,0,.72.77.75,1.93.09,3.88-.26,5.79.21a9.66,9.66,0,0,0,2.43.46c.7,0,1.36.25,2.06.26a13.57,13.57,0,0,0,4.51-.6,13.11,13.11,0,0,0,3.85-2c.17-.14.23-.09.42,0,.68.2.64.7.59,1.22s.13.53.55.56c1.1.09,2.23-.3,3.29.29a5.91,5.91,0,0,0,1.73.34c1.75.42,3.44,0,5.16-.18.43,0,.75-.37,1.13-.44a10,10,0,0,1,2.56-.11c.5,0,.74-.09.65-.64a.4.4,0,0,1,.19-.47,11.91,11.91,0,0,0,2.59-2c0,.94,0,1.78,0,2.61,0,.5.14.65.64.64,4.17-.08,8.34.05,12.51-.09,2.18-.08,4.36,0,6.53.05,3.77.1,7.54,0,11.3,0a4.28,4.28,0,0,1,1.18,0,10.79,10.79,0,0,0,1.54.45,13,13,0,0,0,4.26.21c.83-.17,1.68-.13,2.51-.37.27-.08.32-.37.69-.37,3.57,0,7.14.1,10.7-.07,1.1-.05,2.21,0,3.31,0s1.16,0,1.16-1.18v-2.3a11.23,11.23,0,0,0,2.53,2.49c.3.21.8.25.9.59s.36.42.66.39a1,1,0,0,1,.49.12,10.81,10.81,0,0,0,3.93.8,12.07,12.07,0,0,0,2.07-.14,3,3,0,0,1,2.22,0c.07.05.2,0,.3,0a7.37,7.37,0,0,0,2.65,0,16.36,16.36,0,0,0,2.3-.34,4.73,4.73,0,0,1,1.51-.39c2,.06,4,0,5.94,0a5.08,5.08,0,0,1,2.44.35,7.73,7.73,0,0,0,2.78.46,15.32,15.32,0,0,0,2.7-.18,15,15,0,0,0,4.27-1.12c.54-.22,1.06-.48,1.62-.73v.51c0,.71,0,.69.7.71,1.48,0,2.94-.14,4.42-.11,2.06,0,4.12,0,6.19,0,.46,0,.56-.13.55-.57,0-7.51,0-15,0-22.54A11.94,11.94,0,0,0,279.06,190.44Zm-169.62-7.81a14.57,14.57,0,0,1,3.72-1.36,3.5,3.5,0,0,1,2,.2c.26.09.57,0,.77.28a12.73,12.73,0,0,0-4.94,4,7.52,7.52,0,0,0-1.63-2.63C109.2,182.88,109.16,182.77,109.44,182.63ZM99.2,209.23a11.72,11.72,0,0,1,0-8.09Zm12.92.76c-.36,0-.33-.21-.33-.43,0-2.78,0-5.57,0-8.35,0-.16-.09-.35.2-.44s.43-.1.43.27c0,1.43,0,2.86,0,4.28v4.22C112.42,209.76,112.49,210,112.12,210ZM112,193.91c.08-.15.18-.29.3-.49a1.14,1.14,0,0,1,.08.58c0,.14,0,.24-.21.14S111.94,194.1,112,193.91Zm18,21.84q-5.41,0-10.83,0c-.46,0-.61-.12-.57-.57a9.73,9.73,0,0,0,0-1.08l-1.32.64c-.13.06-.31.2-.3-.11a38.58,38.58,0,0,1,.1-4.3c0-.08,0-.21.07-.22.53,0,.93-.44,1.45-.52,0-1.65,0-3.29,0-4.94,0-1.15,0-2.3,0-3.45a14.79,14.79,0,0,0-1.46-.66c-.1,0-.15-.43-.16-.66,0-1.35,0-2.71,0-4.08.6.07,1,.56,1.62.59a11.22,11.22,0,0,0-.2-3.16,2.59,2.59,0,0,0-2.83-1.84,4.81,4.81,0,0,0-3.68,2.31,2.3,2.3,0,0,0-.39,1.48q0,10,0,19.91c0,.67,0,.67-.66.67-3.59,0-7.18,0-10.77,0-.44,0-.55-.12-.55-.54q0-10.38,0-20.74a3,3,0,0,0-1.3-2.68,3.09,3.09,0,0,0-2.41-.33,5.08,5.08,0,0,0-3,2.27,2.17,2.17,0,0,0-.37,1.39c0,6.65,0,13.3,0,20,0,.51-.12.68-.66.67-3.56,0-7.11,0-10.67,0-.46,0-.76-.06-.56-.63a1.77,1.77,0,0,0,0-.46V182.31c0-.7,0-.7.68-.7H91.72c.67,0,.67,0,.67.69v3.1a8.35,8.35,0,0,1,1.86-1.85A14.48,14.48,0,0,1,99,181.21a13.67,13.67,0,0,1,5.36-.27,7.52,7.52,0,0,1,4.66,2.14,6.77,6.77,0,0,1,1.66,2.61,1.71,1.71,0,0,0,.31.52,12.45,12.45,0,0,1,5-4.18,13.31,13.31,0,0,1,3.28-1.09,16.58,16.58,0,0,1,3.23-.07,8.79,8.79,0,0,1,4.56,1.34,6.81,6.81,0,0,1,2.71,3.25,12.76,12.76,0,0,1,.81,5q0,12.36,0,24.71C130.58,215.59,130.49,215.75,130,215.75Zm9-.66c-.07,0-.14-.13-.07-.21s.19-.09.22,0c.17.41.7.31.87.73Zm26.61.67c-3.62,0-7.25,0-10.88,0-.43,0-.57-.05-.5-.57a23.47,23.47,0,0,0,0-2.68,9,9,0,0,1-2,1.89,12.9,12.9,0,0,1-5.43,2,12,12,0,0,1-4.52-.26,9.68,9.68,0,0,1-3.49-1.73,10.49,10.49,0,0,1-4.16-7.87,14.69,14.69,0,0,1,.62-5.82,9.83,9.83,0,0,1,1.71-2.93,9.51,9.51,0,0,1,4.11-2.8,12,12,0,0,1,2.88-.6,15.06,15.06,0,0,1,4,.15,11.94,11.94,0,0,1,2.24.59,10.27,10.27,0,0,1,3.22,1.82,6.4,6.4,0,0,1,.53.62c.05.05.14.12.21.11s.09-.13.09-.21c-.06-1.39.18-2.8-.38-4.16a4,4,0,0,0-2-2.18,7.41,7.41,0,0,0-4.76-.59,14,14,0,0,0-2.51.65,14.79,14.79,0,0,0-3.35,1.79c-.14.1-.27.21-.41.3-.49.33-.62.26-.88-.26-.51-1-1-2-1.57-3-.34-.67-.64-1.37-1-2s-.63-1.2-.95-1.8a.51.51,0,0,1,.14-.74,17.78,17.78,0,0,1,3.05-2,21.86,21.86,0,0,1,4-1.57,20.43,20.43,0,0,1,3.12-.7,25.17,25.17,0,0,1,4.33-.31,23.55,23.55,0,0,1,5.5.54,14.07,14.07,0,0,1,5.56,2.61,10.4,10.4,0,0,1,3.52,5.37,14.35,14.35,0,0,1,.58,4q0,10.94,0,21.86C166.28,215.64,166.12,215.76,165.65,215.76Zm-26.5-20.38c.29,0,.52-.34.86-.23-.21.24-.54.24-.77.43-.05,0-.12.08-.17,0A.13.13,0,0,1,139.15,195.38ZM154,195a2.36,2.36,0,0,0,0,.46c.12.52-.31.63-.61.84s-.41-.12-.59-.23a16.84,16.84,0,0,0-2.22-1.08c-.8-.32-1.63-.42-2.42-.69-.07,0-.15-.05-.14-.12.06-.59-.24-1.23.29-1.74s1-1,1.48-1.53a.45.45,0,0,1,.42-.12,4.54,4.54,0,0,1,3.76,3.28,4.12,4.12,0,0,1,0,.93Zm15.05-.41a3.75,3.75,0,0,0,0-.82,1.94,1.94,0,0,1,.75-1.83c.24-.22.47-.46.7-.69s.38-.21.54.1a6.51,6.51,0,0,1,.8,3v3.4a7.31,7.31,0,0,0-2-1.58C169,195.83,169,195.25,169.05,194.59Zm2.79,12.31a.61.61,0,0,1-.13.48,6.51,6.51,0,0,1-2.64,1.88v-7.78a7,7,0,0,1,2.67,1.85c.14.13.1.28.1.43ZM210,205.39v4.17c0,.34,0,.51-.44.29a10.88,10.88,0,0,1-2.06-1,4.24,4.24,0,0,1-1.59-4.55,4.57,4.57,0,0,1,3.37-3.3c.71-.22.72-.2.72.57ZM222.28,215c0,.74,0,.74-.75.74-3.57,0-7.15,0-10.72,0-.47,0-.61-.12-.61-.6,0-6.84,0-13.68,0-20.52a7.27,7.27,0,0,0-.35-1.8c0-.11-.07-.25-.24-.21a.94.94,0,0,0,.1.63c.28.46.09.77-.42.73a22,22,0,0,0-3.81.23,12.11,12.11,0,0,0-2.07.53c-.1-.61.34-1,.66-1.37a4.54,4.54,0,0,1,1.51-1.31,3.4,3.4,0,0,1,2.58-.32,2.15,2.15,0,0,1,1.25.84s.13,0,.19,0a1.55,1.55,0,0,0-1.32-1.11c-2.39-.52-3.93.82-5,2.64a1,1,0,0,0-.08.6v20.32c0,.68,0,.68-.68.68H191.81c-.65,0-.65,0-.65-.66q0-10.18,0-20.37a3.84,3.84,0,0,0-.67-2.41,1.78,1.78,0,0,0-1-.71,4.1,4.1,0,0,0-4.51,1.46c-.07.1-.15.19-.22.28a2.3,2.3,0,0,0-.62,1.57c0,6.72,0,13.44,0,20.16,0,.68,0,.68-.69.68H172.78c-.71,0-.71,0-.71-.72V182.34c0-.73,0-.71.7-.73,3.57-.1,7.14-.08,10.72-.08.66,0,.71,0,.7.7,0,.85-.05,1.71-.08,2.57,0,.1-.05.26.11.3s.16-.1.22-.18a11.44,11.44,0,0,1,3.93-2.88,16.28,16.28,0,0,1,3.29-1.09,3.52,3.52,0,0,1,1.12-.09,28.43,28.43,0,0,1,3.33,0,8.1,8.1,0,0,1,5.16,2.78,7,7,0,0,1,1.17,2.15c0,.11.05.26.18.28s.14-.12.2-.21a12.29,12.29,0,0,1,6.06-4.41,8.72,8.72,0,0,1,3.54-.64c.9.07,1.81-.11,2.71,0A8.53,8.53,0,0,1,219.8,183a7,7,0,0,1,1.66,2.5,12.88,12.88,0,0,1,.8,4.87C222.3,198.61,222.28,206.81,222.28,215Zm.62-25.25-.42.2a9.71,9.71,0,0,0-.44-3.34,4,4,0,0,0-.61-1.68c-.14-.16,0-.24.08-.33l.46-.32a9.82,9.82,0,0,1,1.57,4.09C223.64,189.32,223.69,189.32,222.9,189.76Zm5.25-.54c.58-.07,1,.36,1.47.47.13,0,.21.31.3.49a33.61,33.61,0,0,1,1.68,3.47,3.5,3.5,0,0,1,.06,1.33c0,.38-.44.39-.7.55a9.9,9.9,0,0,0-2.53,2.16,1.79,1.79,0,0,1-.27.25c0-2.25,0-4.39,0-6.53a4.17,4.17,0,0,0-.36-1.66C227.63,189.38,227.76,189.27,228.15,189.22Zm29.08,26.54q-5.37,0-10.73,0c-.47,0-.63-.13-.6-.61,0-.8,0-1.61,0-2.55a10.23,10.23,0,0,1-4.84,3.23,12.21,12.21,0,0,1-7,.29,9.62,9.62,0,0,1-4.22-2.3,9.92,9.92,0,0,1-2.65-3.72,10.91,10.91,0,0,1-.75-2.81,13.56,13.56,0,0,1-.2-2.09,12.84,12.84,0,0,1,1.61-6.27,9.4,9.4,0,0,1,2.54-2.68,9.72,9.72,0,0,1,3.91-1.68,13.23,13.23,0,0,1,3.83-.21,16,16,0,0,1,3.32.59,9.22,9.22,0,0,1,3.42,1.76c.34.3.63.66,1.05,1,0-1.2,0-2.28,0-3.37a3.91,3.91,0,0,0-1.8-3,4.42,4.42,0,0,0-1.73-.73,7.18,7.18,0,0,0-2.4-.23,13.9,13.9,0,0,0-4,1,16.25,16.25,0,0,0-3.58,2c-.28.21-.5.11-.66-.2-.8-1.64-1.67-3.24-2.51-4.85-.41-.77-.81-1.54-1.21-2.31a.37.37,0,0,1,.13-.52,18.66,18.66,0,0,1,4.3-2.65,19.24,19.24,0,0,1,2.92-1.06c1.06-.29,2.16-.49,3.25-.68a22.91,22.91,0,0,1,4.45-.29,24.19,24.19,0,0,1,4.78.46,13.93,13.93,0,0,1,6.13,2.84,10.11,10.11,0,0,1,3.13,4.66,15.73,15.73,0,0,1,.76,5q0,10.65,0,21.3C257.89,215.65,257.74,215.77,257.23,215.76Zm-16-23.37v-1c0-.59.11-.71.68-.56a5.34,5.34,0,0,1,2.53,1.22,3.68,3.68,0,0,1,1.08,1.95c0,.24-.06.23-.2.23a5.19,5.19,0,0,1-1.17-.1,10,10,0,0,0-2.5-.1c-.33,0-.45-.09-.43-.43S241.26,192.78,241.26,192.39Zm20.29-4a13.05,13.05,0,0,1,3.73.35c.67.19,1.26.53,1.93.68.21,0,.25.22.25.39,0,1.92,0,3.84,0,5.77,0,.21,0,.26-.27.14a11.83,11.83,0,0,0-3.12-1.16c-.53-.11-1.06-.32-1.61-.4-.25,0-.17-.23-.16-.36a16.7,16.7,0,0,0-.41-4A7.86,7.86,0,0,1,261.55,188.42Zm5.11,21.1a14.59,14.59,0,0,1-3.83.67c-.4,0-.54-.11-.53-.53,0-1.46,0-2.92,0-4.38s0-2.82,0-4.23c0-.39.12-.47.49-.47a11.78,11.78,0,0,1,4.4.83c.26.09.28.27.28.47q0,3.51,0,7C267.47,209.44,266.92,209.42,266.66,209.52Z"/><path class="cls-3" d="M209.61,192.62a1.55,1.55,0,0,0-1.32-1.11c-2.39-.52-3.93.82-5,2.64a1,1,0,0,0-.08.6v20.32c0,.68,0,.68-.68.68H191.81c-.65,0-.65,0-.65-.66q0-10.18,0-20.37a3.84,3.84,0,0,0-.67-2.41,1.78,1.78,0,0,0-1-.71,4.1,4.1,0,0,0-4.51,1.46c-.07.1-.15.19-.22.28a2.3,2.3,0,0,0-.62,1.57c0,6.72,0,13.44,0,20.16,0,.68,0,.68-.69.68H172.78c-.71,0-.71,0-.71-.72V182.34c0-.73,0-.71.7-.73,3.57-.1,7.14-.08,10.72-.08.66,0,.71,0,.7.7,0,.85-.05,1.71-.08,2.57,0,.1-.05.26.11.3s.16-.1.22-.18a11.44,11.44,0,0,1,3.93-2.88,16.28,16.28,0,0,1,3.29-1.09,3.52,3.52,0,0,1,1.12-.09,28.43,28.43,0,0,1,3.33,0,8.1,8.1,0,0,1,5.16,2.78,7,7,0,0,1,1.17,2.15c0,.11.05.26.18.28s.14-.12.2-.21a12.29,12.29,0,0,1,6.06-4.41,8.72,8.72,0,0,1,3.54-.64c.9.07,1.81-.11,2.71,0A8.53,8.53,0,0,1,219.8,183a7,7,0,0,1,1.66,2.5,12.88,12.88,0,0,1,.8,4.87c0,8.2,0,16.4,0,24.6,0,.74,0,.74-.75.74-3.57,0-7.15,0-10.72,0-.47,0-.61-.12-.61-.6,0-6.84,0-13.68,0-20.52a7.27,7.27,0,0,0-.35-1.8c0-.11-.07-.25-.24-.21Z"/><path class="cls-3" d="M118.58,209.58c0-1.65,0-3.29,0-4.94,0-1.15,0-2.3,0-3.45v-4.81a11.22,11.22,0,0,0-.2-3.16,2.59,2.59,0,0,0-2.83-1.84,4.81,4.81,0,0,0-3.68,2.31,2.3,2.3,0,0,0-.39,1.48q0,10,0,19.91c0,.67,0,.67-.66.67-3.59,0-7.18,0-10.77,0-.44,0-.55-.12-.55-.54q0-10.38,0-20.74a3,3,0,0,0-1.3-2.68,3.09,3.09,0,0,0-2.41-.33,5.08,5.08,0,0,0-3,2.27,2.17,2.17,0,0,0-.37,1.39c0,6.65,0,13.3,0,20,0,.51-.12.68-.66.67-3.56,0-7.11,0-10.67,0-.46,0-.76-.06-.56-.63a1.77,1.77,0,0,0,0-.46V182.31c0-.7,0-.7.68-.7H91.72c.67,0,.67,0,.67.69v3.1a8.35,8.35,0,0,1,1.86-1.85A14.48,14.48,0,0,1,99,181.21a13.67,13.67,0,0,1,5.36-.27,7.52,7.52,0,0,1,4.66,2.14,6.77,6.77,0,0,1,1.66,2.61,1.71,1.71,0,0,0,.31.52,12.45,12.45,0,0,1,5-4.18,13.31,13.31,0,0,1,3.28-1.09,16.58,16.58,0,0,1,3.23-.07,8.79,8.79,0,0,1,4.56,1.34,6.81,6.81,0,0,1,2.71,3.25,12.76,12.76,0,0,1,.81,5q0,12.36,0,24.71c0,.45-.09.61-.58.61q-5.41,0-10.83,0c-.46,0-.61-.12-.57-.57a9.73,9.73,0,0,0,0-1.08Z"/><path class="cls-3" d="M245.91,212.6a10.23,10.23,0,0,1-4.84,3.23,12.21,12.21,0,0,1-7,.29,9.62,9.62,0,0,1-4.22-2.3,9.92,9.92,0,0,1-2.65-3.72,10.91,10.91,0,0,1-.75-2.81,13.56,13.56,0,0,1-.2-2.09,12.84,12.84,0,0,1,1.61-6.27,9.4,9.4,0,0,1,2.54-2.68,9.72,9.72,0,0,1,3.91-1.68,13.23,13.23,0,0,1,3.83-.21,16,16,0,0,1,3.32.59,9.22,9.22,0,0,1,3.42,1.76c.34.3.63.66,1.05,1,0-1.2,0-2.28,0-3.37a3.91,3.91,0,0,0-1.8-3,4.42,4.42,0,0,0-1.73-.73,7.18,7.18,0,0,0-2.4-.23,13.9,13.9,0,0,0-4,1,16.25,16.25,0,0,0-3.58,2c-.28.21-.5.11-.66-.2-.8-1.64-1.67-3.24-2.51-4.85-.41-.77-.81-1.54-1.21-2.31a.37.37,0,0,1,.13-.52,18.66,18.66,0,0,1,4.3-2.65,19.24,19.24,0,0,1,2.92-1.06c1.06-.29,2.16-.49,3.25-.68a22.91,22.91,0,0,1,4.45-.29,24.19,24.19,0,0,1,4.78.46,13.93,13.93,0,0,1,6.13,2.84,10.11,10.11,0,0,1,3.13,4.66,15.73,15.73,0,0,1,.76,5q0,10.65,0,21.3c0,.54-.15.66-.66.65q-5.37,0-10.73,0c-.47,0-.63-.13-.6-.61C245.94,214.35,245.91,213.54,245.91,212.6Zm0-7.13a4.34,4.34,0,0,1,0-.51,1.67,1.67,0,0,0-.64-1.59,4.63,4.63,0,0,0-1.57-.9,4.73,4.73,0,0,0-3.53,0,3.09,3.09,0,0,0-1.93,3.77,3.23,3.23,0,0,0,2.64,2.31,9.1,9.1,0,0,0,2.15,0,4.4,4.4,0,0,0,2.11-.94A2.09,2.09,0,0,0,245.91,205.47Z"/><path class="cls-3" d="M154.3,212.5a9,9,0,0,1-2,1.89,12.9,12.9,0,0,1-5.43,2,12,12,0,0,1-4.52-.26,9.68,9.68,0,0,1-3.49-1.73,10.49,10.49,0,0,1-4.16-7.87,14.69,14.69,0,0,1,.62-5.82,9.83,9.83,0,0,1,1.71-2.93,9.51,9.51,0,0,1,4.11-2.8,12,12,0,0,1,2.88-.6,15.06,15.06,0,0,1,4,.15,11.94,11.94,0,0,1,2.24.59,10.27,10.27,0,0,1,3.22,1.82,6.4,6.4,0,0,1,.53.62c.05.05.14.12.21.11s.09-.13.09-.21c-.06-1.39.18-2.8-.38-4.16a4,4,0,0,0-2-2.18,7.41,7.41,0,0,0-4.76-.59,14,14,0,0,0-2.51.65,14.79,14.79,0,0,0-3.35,1.79c-.14.1-.27.21-.41.3-.49.33-.62.26-.88-.26-.51-1-1-2-1.57-3-.34-.67-.64-1.37-1-2s-.63-1.2-.95-1.8a.51.51,0,0,1,.14-.74,17.78,17.78,0,0,1,3.05-2,21.86,21.86,0,0,1,4-1.57,20.43,20.43,0,0,1,3.12-.7,25.17,25.17,0,0,1,4.33-.31,23.55,23.55,0,0,1,5.5.54,14.07,14.07,0,0,1,5.56,2.61,10.4,10.4,0,0,1,3.52,5.37,14.35,14.35,0,0,1,.58,4q0,10.94,0,21.86c0,.49-.16.61-.63.61-3.62,0-7.25,0-10.88,0-.43,0-.57-.05-.5-.57A23.47,23.47,0,0,0,154.3,212.5Zm-4.06-10.26c-2.21,0-3.29.79-3.7,2.73a3,3,0,0,0,2.32,3.54,5.52,5.52,0,0,0,3.7-.37,3,3,0,0,0,1.6-4,1.66,1.66,0,0,0-.29-.42A4.19,4.19,0,0,0,150.24,202.24Z"/><path class="cls-4" d="M267.81,215.77V184.32H262.3v-1.86h5.51v-3.52c0-6.2,3.11-9.86,8.35-9.86a7.51,7.51,0,0,1,3.93.9l-.9,1.79a5.65,5.65,0,0,0-3-.83c-4.21,0-6.28,3-6.28,8v3.52h6.76v1.86h-6.76v31.45Zm15-41a2,2,0,0,1,2-2,2,2,0,0,1,0,4A2.05,2.05,0,0,1,282.84,174.74Zm1,41V182.46h2.07v33.31Z"/><path class="cls-4" d="M297.74,215.77v-46h2.07v46Z"/><path class="cls-4" d="M350.84,215.77v-24c0-5.17-2.14-8.27-7.17-8.27-3.73,0-8.28,2.82-10.35,6.2v26.07h-2.06v-24c0-5.17-2.14-8.27-7.18-8.27-3.72,0-8.13,2.89-10.34,6.27v26h-2.07V182.46h2.07v5.24c1.38-2.2,5.93-6.07,10.69-6.07,5.24,0,7.93,3.24,8.62,6.35,1.86-3.11,6.34-6.35,11-6.35,6.07,0,8.9,3.52,8.9,10.14v24Z"/></svg>