<svg id="Layer_1" data-name="Layer 1" xmlns="http://www.w3.org/2000/svg" viewBox="0 0 396 396"><defs><style>.cls-1{fill:#4d5858;}.cls-2{fill:#fed6b5;}.cls-2,.cls-3{fill-rule:evenodd;}.cls-3{fill:#ef3a24;}</style></defs><title>MAMAFILM LOGO FINAL 1</title><path class="cls-1" d="M262.85,225.75v-4.09c0-.88-.36-1.41-1.22-1.41a2.33,2.33,0,0,0-1.76,1.05v4.45h-.35v-4.09c0-.88-.37-1.41-1.23-1.41a2.38,2.38,0,0,0-1.76,1.07v4.43h-.35v-5.68h.35V221a2.5,2.5,0,0,1,1.82-1,1.4,1.4,0,0,1,1.47,1.08,2.37,2.37,0,0,1,1.87-1.08c1,0,1.52.6,1.52,1.73v4.09Z"/><path class="cls-1" d="M264.92,222.9a2.79,2.79,0,0,1,2.66-3,2.69,2.69,0,0,1,2.64,3V223h-4.9a2.41,2.41,0,0,0,2.38,2.55,2.55,2.55,0,0,0,2-.86l.22.22a2.86,2.86,0,0,1-2.19,1A2.78,2.78,0,0,1,264.92,222.9Zm2.65-2.65a2.38,2.38,0,0,0-2.25,2.45h4.52A2.33,2.33,0,0,0,267.57,220.25Z"/><path class="cls-1" d="M276.21,225.75v-1a2.52,2.52,0,0,1-2,1.1c-1.53,0-2.54-1.18-2.54-3s1-3,2.54-3a2.49,2.49,0,0,1,2,1.12v-3.14h.35v7.84Zm0-1.31v-3a2.51,2.51,0,0,0-2-1.15c-1.39,0-2.15,1.17-2.15,2.66s.76,2.66,2.15,2.66A2.49,2.49,0,0,0,276.21,224.44Z"/><path class="cls-1" d="M278.41,218.75a.36.36,0,0,1,.34-.34.34.34,0,0,1,.34.34.34.34,0,0,1-.34.34A.35.35,0,0,1,278.41,218.75Zm.17,7v-5.68h.35v5.68Z"/><path class="cls-1" d="M284.61,225.75v-.7a2.48,2.48,0,0,1-2,.84,1.9,1.9,0,1,1,0-3.79,2.48,2.48,0,0,1,2,.84v-1.28a1.43,1.43,0,0,0-1.59-1.41,2.22,2.22,0,0,0-1.83.89l-.27-.24a2.52,2.52,0,0,1,2.1-1c1.11,0,2,.56,2,1.72v4.1Zm0-1.05v-1.41a2.26,2.26,0,0,0-1.86-.87,1.58,1.58,0,1,0,0,3.15A2.26,2.26,0,0,0,284.61,224.7Z"/><path class="cls-1" d="M293.7,225.75v-.7a2.49,2.49,0,0,1-2,.84,1.9,1.9,0,1,1,0-3.79,2.49,2.49,0,0,1,2,.84v-1.28a1.43,1.43,0,0,0-1.59-1.41,2.22,2.22,0,0,0-1.83.89l-.27-.24a2.52,2.52,0,0,1,2.1-1c1.11,0,1.95.56,1.95,1.72v4.1Zm0-1.05v-1.41a2.26,2.26,0,0,0-1.86-.87,1.58,1.58,0,1,0,0,3.15A2.26,2.26,0,0,0,293.7,224.7Z"/><path class="cls-1" d="M296.07,225.75v-7.84h.36v3.14a2.49,2.49,0,0,1,2-1.12c1.53,0,2.54,1.2,2.54,3s-1,3-2.54,3a2.5,2.5,0,0,1-2-1.1v1Zm2.4-.18c1.39,0,2.15-1.16,2.15-2.66s-.76-2.66-2.15-2.66a2.48,2.48,0,0,0-2,1.15v3A2.46,2.46,0,0,0,298.47,225.57Z"/><path class="cls-1" d="M302.42,222.9a2.66,2.66,0,1,1,2.64,3A2.71,2.71,0,0,1,302.42,222.9Zm4.9,0a2.29,2.29,0,1,0-2.26,2.67A2.4,2.4,0,0,0,307.32,222.9Z"/><path class="cls-1" d="M313.25,225.75v-.87a2.94,2.94,0,0,1-2.06,1c-1.13,0-1.77-.5-1.77-1.84v-4h.35v4c0,1.19.59,1.52,1.47,1.52a2.67,2.67,0,0,0,2-1v-4.47h.35v5.68Z"/><path class="cls-1" d="M315.69,224.75v-4.36h-.94v-.32h.94v-1.55H316v1.55h1.15v.32H316v4.36c0,.48.19.82.61.82a.89.89,0,0,0,.67-.31l.21.27a1.12,1.12,0,0,1-.88.36C316,225.89,315.69,225.45,315.69,224.75Z"/><path class="cls-1" d="M328.35,225.75v-4.09c0-.88-.36-1.41-1.22-1.41a2.33,2.33,0,0,0-1.76,1.05v4.45H325v-4.09c0-.88-.36-1.41-1.22-1.41a2.38,2.38,0,0,0-1.76,1.07v4.43h-.35v-5.68H322V221a2.5,2.5,0,0,1,1.82-1,1.4,1.4,0,0,1,1.47,1.08,2.37,2.37,0,0,1,1.87-1.08c1,0,1.51.6,1.51,1.73v4.09Z"/><path class="cls-1" d="M330.42,222.9a2.66,2.66,0,1,1,2.64,3A2.71,2.71,0,0,1,330.42,222.9Zm4.9,0a2.29,2.29,0,1,0-2.26,2.67A2.4,2.4,0,0,0,335.32,222.9Z"/><path class="cls-1" d="M344.09,225.75v-4.09c0-.88-.36-1.41-1.22-1.41a2.35,2.35,0,0,0-1.77,1.05v4.45h-.35v-4.09c0-.88-.36-1.41-1.22-1.41a2.36,2.36,0,0,0-1.76,1.07v4.43h-.35v-5.68h.35V221a2.48,2.48,0,0,1,1.82-1,1.41,1.41,0,0,1,1.47,1.08,2.37,2.37,0,0,1,1.87-1.08c1,0,1.51.6,1.51,1.73v4.09Z"/><path class="cls-1" d="M346,225l.29-.26a2.19,2.19,0,0,0,1.8.85c1,0,1.68-.57,1.68-1.32,0-1.74-3.65-.83-3.65-2.82,0-.83.71-1.5,1.93-1.5a2.32,2.32,0,0,1,1.95.86l-.26.23a2,2,0,0,0-1.69-.77c-1,0-1.57.51-1.57,1.18,0,1.59,3.64.67,3.64,2.82,0,.88-.66,1.64-2,1.64A2.52,2.52,0,0,1,346,225Z"/><path class="cls-2" d="M276.17,190.71a11.41,11.41,0,0,0-1.13-3.33,10.08,10.08,0,0,0-2.45-3c.45,0,.85,0,1.25,0s.41-.11.4-.41c0-.48,0-1,0-1.44s0-.63-.65-.63c-1.79,0-3.58,0-5.37,0-.41,0-.57-.07-.56-.53,0-.21,0-.41,0-.62h-.37v.7c0,.69.06.74.72.74,1.83,0,3.65,0,5.47,0,.43,0,.57.13.53.54a5.89,5.89,0,0,0,0,.84c0,.4-.12.52-.51.52-1.82,0-3.65,0-5.47,0-.66,0-.66,0-.66.65,0,2.4,0,4.8,0,7.21,0,1.7-.1,3.4-.05,5.11s.08,3.24.06,4.86c0,1.24-.13,2.48-.07,3.72.09,1.85.08,3.71.07,5.56,0,.92-.11,1.85-.07,2.77a.69.69,0,0,1,0,.25c-.08.28.28.61-.05.83s-.55.06-.82.06c-1.13,0-1.13,0-1.13-1.1V184.81c0-.73,0-.73-.75-.73-1.42,0-2.85,0-4.27,0-.34,0-.48-.1-.45-.45a7.53,7.53,0,0,0,0-.95c0-.38.09-.51.49-.5,1.46,0,2.92,0,4.38,0,.44,0,.62-.12.61-.59s0-.7,0-1.05l-.3-.05v.33c0,.42-.15.54-.51.45a9.59,9.59,0,0,0-1.42-.1c-.9-.05-1.8,0-2.7,0a20,20,0,0,0-3.45.48,20.62,20.62,0,0,0-3.25.9.77.77,0,0,1-.57-.06,7.78,7.78,0,0,0-1.4-.5c-.72-.18-1.44-.36-2.18-.48s-1.54-.25-2.32-.32c-1.39-.13-2.78,0-4.17-.07a22.94,22.94,0,0,0-7.29.55c-.72.17-1.46.47-2.16-.08h-.1a14.89,14.89,0,0,0-4.42-.42,14.23,14.23,0,0,0-4.23.92,9.18,9.18,0,0,0-2.2,1.08.7.7,0,0,1-.9,0,7.69,7.69,0,0,0-1.61-.77c-.67-.25-1.38-.4-2-.67a2.8,2.8,0,0,0-1.64-.12c-.07,0-.13,0-.18,0-.39-.28-.88-.21-1.31-.32a13.18,13.18,0,0,0-3.44-.23c-.38,0-.76.29-1.09.17a4.64,4.64,0,0,0-1.89-.08,14.22,14.22,0,0,0-3.16.6,16.15,16.15,0,0,0-2.17.82c-.63.31-1.22.71-1.82,1.06-.17.1-.38.11-.47-.07s-.44-.38-.64-.6a4,4,0,0,0-1.54-.95,6.89,6.89,0,0,0-1.81-.61c-.69-.08-1.39-.31-2.1-.34a15.12,15.12,0,0,0-3.15.2c-.72.12-1.46.16-2.16.35a10.59,10.59,0,0,0-2.65,1c-.07,0-.11.08-.2,0a8.81,8.81,0,0,0-3-1.21,13.05,13.05,0,0,0-5.28-.13c-.62.09-1.24.43-1.82.48a14.27,14.27,0,0,1-5-.3,15.17,15.17,0,0,0-4.39-.4,8.65,8.65,0,0,0-3.77.44.2.2,0,0,1-.15,0,2.12,2.12,0,0,0-1.21-.3,18.08,18.08,0,0,0-3.45,0c-.59.05-1.14.4-1.74.2a8.46,8.46,0,0,0-2.22-.33,22.59,22.59,0,0,0-4.11.06,5.79,5.79,0,0,1-1.32.12c-.18,0-.34-.18-.52-.09a9.08,9.08,0,0,1-2.06.36,5.87,5.87,0,0,0-1,.19,3.71,3.71,0,0,1-1.49.24c-1,0-2,0-2.93,0-.15,0-.34-.06-.41.1s-.3.14-.39.08a7.6,7.6,0,0,0-2.39-.77,14.43,14.43,0,0,0-7.68.65c-.56.19-1,.43-1.46,0,0,0-.09,0-.13-.05a12.13,12.13,0,0,0-2.71-.76,15.36,15.36,0,0,0-3.1-.12c-.78,0-1.53.73-2.34.08h-.1c-2.11,0-4.22,0-6.33,0a8.86,8.86,0,0,0-3.65.77.46.46,0,0,1-.38,0,6.14,6.14,0,0,0-1.46-.5,12,12,0,0,0-2.3-.36,10.35,10.35,0,0,0-3.36.35,2,2,0,0,1-1.36.15,11.06,11.06,0,0,0-4.54-.37,6.39,6.39,0,0,0-1.52.3,4.65,4.65,0,0,1-1.14.35c-1.93,0-3.87.22-5.76-.46A10.77,10.77,0,0,0,85,181.2a11.06,11.06,0,0,0-3,.58,5.6,5.6,0,0,1-1.4.22c-.38,0-.77,0-1.15,0s-.6.12-.56.56a.71.71,0,0,1-.35.8,13.59,13.59,0,0,0-2.4,1.89c-.47.49-.9,1-1.35,1.5a9.29,9.29,0,0,0-1.42-2.45,8.68,8.68,0,0,0-5.24-2.89,6.85,6.85,0,0,0-1.2-.21,18.74,18.74,0,0,0-4.41.37,18,18,0,0,0-3.92,1.5,13.23,13.23,0,0,0-3.45,2.67c0-.23,0-.39,0-.55,0-.88,0-1.76,0-2.63,0-.48-.14-.56-.58-.56-2.64,0-5.27,0-7.91,0-.66,0-.67,0-.67.66q0,16,0,32c0,.45.12.59.59.59q4,0,8,0c.45,0,.58-.1.58-.57,0-7,0-13.92,0-20.89a1.62,1.62,0,0,1,.35-1.09,9.17,9.17,0,0,1,3.91-2.85,5.62,5.62,0,0,1,3.19-.38,5,5,0,0,1,1.91.64A4.55,4.55,0,0,1,66.29,194c.08,6.9,0,13.8,0,20.69,0,.39.09.5.49.5,2.7,0,5.4,0,8.1,0,.46,0,.58-.12.57-.57,0-6.88,0-13.76,0-20.64a2.14,2.14,0,0,1,.5-1.63,9.43,9.43,0,0,1,2.89-2.21v24.28c0,.12,0,.24,0,.35,0,.33.08.43.41.42,2.68-.08,5.36.11,8,.08,3.23,0,6.45,0,9.68-.07,4.12-.14,8.25.15,12.37.08h.2c.06,0,.17,0,.18,0,.19.43.63.39,1,.43a11.88,11.88,0,0,0,3.9.23c.71-.13,1.44-.13,2.13-.31a14.17,14.17,0,0,1,4-.5c.38,0,.75.12,1.13.11h10.64c.74,0,.74,0,.74-.75V190.35a1.1,1.1,0,0,1,0-.57c.18-.05.22.15.35.16a.67.67,0,0,1,.34.14,4.51,4.51,0,0,1,1.83,3.84c.08,1.72,0,3.45,0,5.17a1,1,0,0,1-.12.51,12.1,12.1,0,0,0-.87,2.33,13.28,13.28,0,0,0-.3,3.72,9.34,9.34,0,0,0,1,4,2.94,2.94,0,0,1,.35,1.46c0,1.13,0,2.25,0,3.38,0,.72,0,.69.75.73,1.86.09,3.74-.25,5.59.2a9.3,9.3,0,0,0,2.34.44c.67,0,1.31.24,2,.25a13.1,13.1,0,0,0,4.35-.58,12.3,12.3,0,0,0,3.71-1.9c.17-.13.23-.08.41,0,.65.19.62.68.57,1.18s.13.51.53.54c1.06.09,2.15-.29,3.17.28a5.83,5.83,0,0,0,1.67.33c1.68.4,3.32,0,5-.17.41-.05.72-.36,1.09-.43a9.65,9.65,0,0,1,2.46-.11c.48,0,.72-.08.63-.61a.37.37,0,0,1,.18-.45,10.94,10.94,0,0,0,2.5-2c0,.91,0,1.72,0,2.52,0,.48.13.63.62.62,4-.08,8,0,12.07-.09,2.09-.07,4.2,0,6.3,0,3.63.09,7.26,0,10.89,0a4,4,0,0,1,1.14.05,13.18,13.18,0,0,0,1.48.44,12.61,12.61,0,0,0,4.11.19c.8-.16,1.62-.12,2.42-.35.26-.08.31-.36.66-.36,3.44,0,6.89.1,10.33-.07,1.06-.05,2.12,0,3.18,0s1.12,0,1.12-1.14v-2.21a11.28,11.28,0,0,0,2.44,2.4c.3.2.78.24.88.57s.34.4.63.38a.93.93,0,0,1,.47.11,10.51,10.51,0,0,0,3.79.77,11.26,11.26,0,0,0,2-.13,2.88,2.88,0,0,1,2.14,0c.07,0,.19,0,.29,0a7,7,0,0,0,2.55,0,16.5,16.5,0,0,0,2.22-.33,4.69,4.69,0,0,1,1.46-.38c1.91.06,3.82,0,5.72,0a4.84,4.84,0,0,1,2.36.34,7.26,7.26,0,0,0,2.68.44,18.58,18.58,0,0,0,6.72-1.25c.52-.21,1-.46,1.56-.71v.5c0,.68,0,.66.68.68,1.42,0,2.84-.13,4.26-.11,2,0,4,0,6,0,.45,0,.54-.12.54-.55,0-7.24,0-14.49,0-21.73A11.91,11.91,0,0,0,276.17,190.71ZM112.6,183.17a14.49,14.49,0,0,1,3.58-1.31,3.42,3.42,0,0,1,2,.2c.25.09.55,0,.74.27a12.38,12.38,0,0,0-4.76,3.81,7.07,7.07,0,0,0-1.58-2.53C112.37,183.42,112.33,183.32,112.6,183.17Zm-9.88,25.65a11.22,11.22,0,0,1,0-7.79Zm12.45.74c-.34,0-.31-.19-.31-.41,0-2.69,0-5.37,0-8.05,0-.16-.09-.34.2-.43s.41-.09.41.27c0,1.37,0,2.75,0,4.12v4.07C115.47,209.34,115.54,209.56,115.17,209.56Zm-.07-15.5c.08-.15.17-.28.29-.47a1.13,1.13,0,0,1,.08.55c0,.14,0,.23-.2.14S115,194.24,115.1,194.06Zm17.32,21.05q-5.22,0-10.45,0c-.44,0-.58-.12-.54-.55a9,9,0,0,0,0-1l-1.28.61c-.12.06-.29.19-.28-.1a35.71,35.71,0,0,1,.09-4.14c0-.08,0-.21.07-.22.51,0,.9-.43,1.4-.5,0-1.59,0-3.18,0-4.77,0-1.1,0-2.21,0-3.32a14.87,14.87,0,0,0-1.41-.64c-.1,0-.15-.41-.15-.63,0-1.31,0-2.62,0-3.94.58.07,1,.54,1.57.56a11.12,11.12,0,0,0-.19-3,2.52,2.52,0,0,0-2.74-1.78,4.65,4.65,0,0,0-3.54,2.23,2.23,2.23,0,0,0-.38,1.43q0,9.6,0,19.2c0,.65,0,.65-.63.65-3.47,0-6.93,0-10.39,0-.43,0-.53-.12-.53-.53q0-10,0-20a2.83,2.83,0,0,0-1.25-2.59,3,3,0,0,0-2.32-.32,5,5,0,0,0-2.94,2.19,2.13,2.13,0,0,0-.35,1.34c0,6.42,0,12.83,0,19.25,0,.49-.13.66-.64.65-3.44,0-6.87,0-10.3,0-.44,0-.73-.06-.54-.61a1.29,1.29,0,0,0,0-.44q0-15.6,0-31.19c0-.67,0-.67.66-.67H95.51c.64,0,.64,0,.64.66v3a8,8,0,0,1,1.8-1.78,13.67,13.67,0,0,1,4.61-2.26,13.08,13.08,0,0,1,5.17-.26,7.2,7.2,0,0,1,4.49,2.06,6.5,6.5,0,0,1,1.6,2.52,1.59,1.59,0,0,0,.3.5,12.16,12.16,0,0,1,4.79-4,12.76,12.76,0,0,1,3.16-1,16.24,16.24,0,0,1,3.12-.07,8.52,8.52,0,0,1,4.4,1.29,6.57,6.57,0,0,1,2.61,3.13,12.11,12.11,0,0,1,.78,4.8q0,11.91,0,23.83C133,215,132.9,215.12,132.42,215.11Zm8.72-.63a.14.14,0,0,1-.07-.21c.05-.07.18-.07.21,0,.17.39.68.29.85.71Zm25.67.65c-3.5,0-7,0-10.5,0-.41,0-.55-.05-.48-.56a21.84,21.84,0,0,0,0-2.58,8.14,8.14,0,0,1-1.91,1.82,12.16,12.16,0,0,1-5.23,1.93,11.61,11.61,0,0,1-4.36-.24,9.53,9.53,0,0,1-3.37-1.68,9.91,9.91,0,0,1-3.34-4.43,10,10,0,0,1-.67-3.15,14.19,14.19,0,0,1,.61-5.61,9.35,9.35,0,0,1,1.64-2.83,9.23,9.23,0,0,1,4-2.71,11.74,11.74,0,0,1,2.78-.57,14.43,14.43,0,0,1,3.83.14,11,11,0,0,1,2.16.58,9.7,9.7,0,0,1,3.1,1.75,7.31,7.31,0,0,1,.52.59.26.26,0,0,0,.2.11c.1,0,.09-.12.08-.2-.06-1.34.18-2.7-.36-4a3.88,3.88,0,0,0-1.91-2.11,7.13,7.13,0,0,0-4.58-.56,13,13,0,0,0-2.42.62,15,15,0,0,0-3.23,1.73c-.13.1-.26.2-.4.29-.47.31-.6.25-.85-.25-.48-1-1-1.95-1.51-2.93-.33-.65-.62-1.33-1-2s-.6-1.16-.91-1.73a.49.49,0,0,1,.14-.72,17.49,17.49,0,0,1,2.94-2,21.23,21.23,0,0,1,3.82-1.51,20.49,20.49,0,0,1,3-.68,25.48,25.48,0,0,1,4.18-.3,22.92,22.92,0,0,1,5.3.52,13.56,13.56,0,0,1,5.36,2.52,10,10,0,0,1,3.4,5.18,13.77,13.77,0,0,1,.56,3.84q0,10.54,0,21.08C167.41,215,167.26,215.13,166.81,215.13Zm-25.57-19.65c.28,0,.51-.33.83-.23-.2.24-.52.24-.74.42-.05,0-.12.07-.16,0A.12.12,0,0,1,141.24,195.48Zm14.32-.38a1.69,1.69,0,0,0,0,.45c.11.5-.3.61-.59.81s-.4-.12-.57-.22a15.7,15.7,0,0,0-2.14-1c-.77-.3-1.58-.39-2.34-.66-.07,0-.14,0-.13-.11,0-.57-.23-1.19.28-1.68l1.43-1.47a.42.42,0,0,1,.4-.12,4.37,4.37,0,0,1,3.63,3.16,3.78,3.78,0,0,1,0,.89Zm14.52-.39a3.48,3.48,0,0,0,0-.79,1.87,1.87,0,0,1,.73-1.77c.23-.21.44-.44.66-.66s.38-.2.53.09a6.36,6.36,0,0,1,.77,2.89v3.28a6.8,6.8,0,0,0-2-1.52C170,195.9,170,195.35,170.08,194.71Zm2.69,11.88a.61.61,0,0,1-.12.46,6.48,6.48,0,0,1-2.55,1.81v-7.51a6.74,6.74,0,0,1,2.57,1.79c.14.12.1.27.1.42Zm36.81-1.47v4c0,.32,0,.49-.42.28a9.9,9.9,0,0,1-2-1,4.06,4.06,0,0,1-1.53-4.38,4.38,4.38,0,0,1,3.25-3.18c.69-.22.69-.2.69.54Zm11.84,9.29c0,.71,0,.71-.73.71-3.44,0-6.89,0-10.34,0-.45,0-.58-.11-.58-.58,0-6.59,0-13.19,0-19.79a7.36,7.36,0,0,0-.35-1.74c0-.1-.06-.23-.23-.2a1,1,0,0,0,.11.61c.26.44.08.74-.41.7a22.59,22.59,0,0,0-3.68.22,12.17,12.17,0,0,0-2,.52c-.1-.59.33-1,.63-1.32a4.35,4.35,0,0,1,1.46-1.27,3.24,3.24,0,0,1,2.48-.31,2.19,2.19,0,0,1,1.22.81s.12,0,.18,0a1.48,1.48,0,0,0-1.28-1.07c-2.3-.5-3.78.79-4.85,2.54a1,1,0,0,0-.08.58v19.6c0,.66,0,.66-.66.66H192c-.63,0-.63,0-.63-.64V194.83a3.73,3.73,0,0,0-.65-2.31,1.79,1.79,0,0,0-.93-.7,3.93,3.93,0,0,0-4.34,1.42c-.08.09-.15.18-.23.26a2.28,2.28,0,0,0-.58,1.52c0,6.48,0,13,0,19.44,0,.66,0,.66-.66.66H173.67c-.68,0-.68,0-.68-.69V182.89c0-.69,0-.68.68-.7,3.44-.09,6.89-.07,10.33-.07.65,0,.69,0,.68.67,0,.82-.05,1.65-.07,2.48,0,.1-.05.25.1.29s.15-.09.22-.17a10.83,10.83,0,0,1,3.78-2.78,15.6,15.6,0,0,1,3.18-1.05,3.21,3.21,0,0,1,1.07-.09,31.38,31.38,0,0,1,3.22,0,7.89,7.89,0,0,1,5,2.69,6.52,6.52,0,0,1,1.13,2.07c0,.11.05.25.18.27s.13-.12.19-.2a11.86,11.86,0,0,1,5.84-4.25,8.46,8.46,0,0,1,3.41-.62c.87.07,1.76-.1,2.62,0a8.23,8.23,0,0,1,4.5,2.06,6.78,6.78,0,0,1,1.6,2.41,12.42,12.42,0,0,1,.78,4.7C221.43,198.59,221.42,206.5,221.42,214.41Zm.59-24.36-.4.19a9.83,9.83,0,0,0-.42-3.22,3.89,3.89,0,0,0-.6-1.62c-.13-.15,0-.23.08-.31l.44-.31a9.3,9.3,0,0,1,1.52,3.95C222.73,189.63,222.77,189.63,222,190.05Zm5.07-.52c.56-.07.92.35,1.42.45.12,0,.2.3.28.48a31.39,31.39,0,0,1,1.63,3.35,3.39,3.39,0,0,1,.05,1.27c0,.38-.43.38-.68.54a9.73,9.73,0,0,0-2.44,2.08c0,.07-.11.11-.26.25,0-2.18,0-4.24,0-6.31a4,4,0,0,0-.35-1.6C226.57,189.68,226.7,189.58,227.08,189.53Zm28,25.6q-5.16,0-10.34,0c-.45,0-.6-.12-.58-.59,0-.77,0-1.55,0-2.46a9.85,9.85,0,0,1-4.67,3.11,11.84,11.84,0,0,1-6.77.29,9.4,9.4,0,0,1-4.08-2.22,9.79,9.79,0,0,1-2.55-3.59,10.53,10.53,0,0,1-.72-2.71,12.66,12.66,0,0,1-.19-2,12.29,12.29,0,0,1,1.55-6,9,9,0,0,1,2.45-2.59,9.45,9.45,0,0,1,3.77-1.62,13,13,0,0,1,3.69-.2,15.55,15.55,0,0,1,3.2.57,8.88,8.88,0,0,1,3.3,1.7c.33.29.61.63,1,1,0-1.16,0-2.2,0-3.25a3.77,3.77,0,0,0-1.74-2.94,4.33,4.33,0,0,0-1.67-.71,7.18,7.18,0,0,0-2.31-.22,13.65,13.65,0,0,0-3.82.91,16,16,0,0,0-3.45,2c-.27.2-.48.1-.63-.2-.77-1.58-1.61-3.12-2.43-4.68-.38-.74-.78-1.48-1.16-2.23-.1-.19-.07-.33.13-.5a17.83,17.83,0,0,1,4.14-2.55,18.57,18.57,0,0,1,2.81-1c1-.28,2.09-.47,3.14-.66a22.92,22.92,0,0,1,4.29-.28,23.92,23.92,0,0,1,4.61.44,13.34,13.34,0,0,1,5.91,2.75,9.65,9.65,0,0,1,3,4.49,15.17,15.17,0,0,1,.74,4.86q0,10.28,0,20.54C255.75,215,255.61,215.13,255.11,215.13Zm-15.39-22.54v-1c0-.57.11-.68.66-.54a5.17,5.17,0,0,1,2.43,1.18,3.53,3.53,0,0,1,1.05,1.89c0,.23-.06.21-.19.21a4.79,4.79,0,0,1-1.13-.09,9.72,9.72,0,0,0-2.41-.1c-.33,0-.44-.08-.42-.41S239.72,193,239.72,192.59Zm19.57-3.83a12.54,12.54,0,0,1,3.6.34c.64.18,1.21.51,1.85.65a.35.35,0,0,1,.25.38c0,1.85,0,3.71,0,5.56,0,.2,0,.26-.25.14a11.49,11.49,0,0,0-3-1.12c-.52-.11-1-.31-1.56-.38-.23,0-.16-.22-.15-.35a15.52,15.52,0,0,0-.4-3.9A7.08,7.08,0,0,1,259.29,188.76Zm4.92,20.35a13.54,13.54,0,0,1-3.69.64c-.38,0-.52-.1-.51-.5,0-1.41,0-2.82,0-4.23s0-2.71,0-4.07c0-.38.11-.47.48-.47a11.65,11.65,0,0,1,4.24.8.43.43,0,0,1,.27.47c0,2.25,0,4.5,0,6.76C265,209,264.47,209,264.21,209.11Z"/><path class="cls-3" d="M209.2,192.81a1.48,1.48,0,0,0-1.28-1.07c-2.3-.5-3.78.79-4.85,2.54a1,1,0,0,0-.08.58v19.6c0,.66,0,.66-.66.66H192c-.63,0-.63,0-.63-.64V194.83a3.73,3.73,0,0,0-.65-2.31,1.79,1.79,0,0,0-.93-.7,3.93,3.93,0,0,0-4.34,1.42c-.08.09-.15.18-.23.26a2.28,2.28,0,0,0-.58,1.52c0,6.48,0,13,0,19.44,0,.66,0,.66-.66.66H173.67c-.68,0-.68,0-.68-.69V182.89c0-.69,0-.68.68-.7,3.44-.09,6.89-.07,10.33-.07.65,0,.69,0,.68.67,0,.82-.05,1.65-.07,2.48,0,.1-.05.25.1.29s.15-.09.22-.17a10.83,10.83,0,0,1,3.78-2.78,15.6,15.6,0,0,1,3.18-1.05,3.21,3.21,0,0,1,1.07-.09,31.38,31.38,0,0,1,3.22,0,7.89,7.89,0,0,1,5,2.69,6.52,6.52,0,0,1,1.13,2.07c0,.11.05.25.18.27s.13-.12.19-.2a11.86,11.86,0,0,1,5.84-4.25,8.46,8.46,0,0,1,3.41-.62c.87.07,1.76-.1,2.62,0a8.23,8.23,0,0,1,4.5,2.06,6.78,6.78,0,0,1,1.6,2.41,12.42,12.42,0,0,1,.78,4.7c0,7.91,0,15.82,0,23.73,0,.71,0,.71-.73.71-3.44,0-6.89,0-10.34,0-.45,0-.58-.11-.58-.58,0-6.59,0-13.19,0-19.79a7.36,7.36,0,0,0-.35-1.74c0-.1-.06-.23-.23-.2Z"/><path class="cls-3" d="M121.41,209.17c0-1.59,0-3.18,0-4.77,0-1.1,0-2.21,0-3.32v-4.65a11.12,11.12,0,0,0-.19-3,2.52,2.52,0,0,0-2.74-1.78,4.65,4.65,0,0,0-3.54,2.23,2.23,2.23,0,0,0-.38,1.43q0,9.6,0,19.2c0,.65,0,.65-.63.65-3.47,0-6.93,0-10.39,0-.43,0-.53-.12-.53-.53q0-10,0-20a2.83,2.83,0,0,0-1.25-2.59,3,3,0,0,0-2.32-.32,5,5,0,0,0-2.94,2.19,2.13,2.13,0,0,0-.35,1.34c0,6.42,0,12.83,0,19.25,0,.49-.13.66-.64.65-3.44,0-6.87,0-10.3,0-.44,0-.73-.06-.54-.61a1.29,1.29,0,0,0,0-.44q0-15.6,0-31.19c0-.67,0-.67.66-.67H95.51c.64,0,.64,0,.64.66v3a8,8,0,0,1,1.8-1.78,13.67,13.67,0,0,1,4.61-2.26,13.08,13.08,0,0,1,5.17-.26,7.2,7.2,0,0,1,4.49,2.06,6.5,6.5,0,0,1,1.6,2.52,1.59,1.59,0,0,0,.3.5,12.16,12.16,0,0,1,4.79-4,12.76,12.76,0,0,1,3.16-1,16.24,16.24,0,0,1,3.12-.07,8.52,8.52,0,0,1,4.4,1.29,6.57,6.57,0,0,1,2.61,3.13,12.11,12.11,0,0,1,.78,4.8q0,11.91,0,23.83c0,.43-.08.59-.56.58q-5.22,0-10.45,0c-.44,0-.58-.12-.54-.55a9,9,0,0,0,0-1Z"/><path class="cls-3" d="M244.2,212.08a9.85,9.85,0,0,1-4.67,3.11,11.84,11.84,0,0,1-6.77.29,9.4,9.4,0,0,1-4.08-2.22,9.79,9.79,0,0,1-2.55-3.59,10.53,10.53,0,0,1-.72-2.71,12.66,12.66,0,0,1-.19-2,12.29,12.29,0,0,1,1.55-6,9,9,0,0,1,2.45-2.59,9.45,9.45,0,0,1,3.77-1.62,13,13,0,0,1,3.69-.2,15.55,15.55,0,0,1,3.2.57,8.88,8.88,0,0,1,3.3,1.7c.33.29.61.63,1,1,0-1.16,0-2.2,0-3.25a3.77,3.77,0,0,0-1.74-2.94,4.33,4.33,0,0,0-1.67-.71,7.18,7.18,0,0,0-2.31-.22,13.65,13.65,0,0,0-3.82.91,16,16,0,0,0-3.45,2c-.27.2-.48.1-.63-.2-.77-1.58-1.61-3.12-2.43-4.68-.38-.74-.78-1.48-1.16-2.23-.1-.19-.07-.33.13-.5a17.83,17.83,0,0,1,4.14-2.55,18.57,18.57,0,0,1,2.81-1c1-.28,2.09-.47,3.14-.66a22.92,22.92,0,0,1,4.29-.28,23.92,23.92,0,0,1,4.61.44,13.34,13.34,0,0,1,5.91,2.75,9.65,9.65,0,0,1,3,4.49,15.17,15.17,0,0,1,.74,4.86q0,10.28,0,20.54c0,.52-.14.63-.64.63q-5.16,0-10.34,0c-.45,0-.6-.12-.58-.59C244.23,213.77,244.2,213,244.2,212.08Zm0-6.87a4.17,4.17,0,0,1,0-.5,1.63,1.63,0,0,0-.61-1.53,4.6,4.6,0,0,0-1.52-.87,4.5,4.5,0,0,0-3.4,0A3,3,0,0,0,236.8,206a3.12,3.12,0,0,0,2.56,2.22,8.35,8.35,0,0,0,2.06,0,4.21,4.21,0,0,0,2-.91A2,2,0,0,0,244.2,205.21Z"/><path class="cls-3" d="M155.85,212a8.14,8.14,0,0,1-1.91,1.82,12.16,12.16,0,0,1-5.23,1.93,11.61,11.61,0,0,1-4.36-.24,9.53,9.53,0,0,1-3.37-1.68,9.91,9.91,0,0,1-3.34-4.43,10,10,0,0,1-.67-3.15,14.19,14.19,0,0,1,.61-5.61,9.35,9.35,0,0,1,1.64-2.83,9.23,9.23,0,0,1,4-2.71,11.74,11.74,0,0,1,2.78-.57,14.43,14.43,0,0,1,3.83.14,11,11,0,0,1,2.16.58,9.7,9.7,0,0,1,3.1,1.75,7.31,7.31,0,0,1,.52.59.26.26,0,0,0,.2.11c.1,0,.09-.12.08-.2-.06-1.34.18-2.7-.36-4a3.88,3.88,0,0,0-1.91-2.11,7.13,7.13,0,0,0-4.58-.56,13,13,0,0,0-2.42.62,15,15,0,0,0-3.23,1.73c-.13.1-.26.2-.4.29-.47.31-.6.25-.85-.25-.48-1-1-1.95-1.51-2.93-.33-.65-.62-1.33-1-2s-.6-1.16-.91-1.73a.49.49,0,0,1,.14-.72,17.49,17.49,0,0,1,2.94-2,21.23,21.23,0,0,1,3.82-1.51,20.49,20.49,0,0,1,3-.68,25.48,25.48,0,0,1,4.18-.3,22.92,22.92,0,0,1,5.3.52,13.56,13.56,0,0,1,5.36,2.52,10,10,0,0,1,3.4,5.18,13.77,13.77,0,0,1,.56,3.84q0,10.54,0,21.08c0,.47-.15.59-.6.59-3.5,0-7,0-10.5,0-.41,0-.55-.05-.48-.56A21.84,21.84,0,0,0,155.85,212Zm-3.91-9.89c-2.13,0-3.17.76-3.57,2.63a2.91,2.91,0,0,0,2.24,3.42,5.39,5.39,0,0,0,3.57-.36,2.91,2.91,0,0,0,1.55-3.87,2.13,2.13,0,0,0-.29-.4A4,4,0,0,0,151.94,202.09Z"/><path class="cls-1" d="M265.33,215.13V184.81H260V183h5.32v-3.39c0-6,3-9.51,8-9.51a7.2,7.2,0,0,1,3.79.87l-.86,1.73a5.4,5.4,0,0,0-2.93-.8c-4.05,0-6.05,2.86-6.05,7.71V183h6.52v1.8h-6.52v30.32Zm14.49-39.56a2,2,0,0,1,1.93-1.93,1.93,1.93,0,1,1,0,3.85A2,2,0,0,1,279.82,175.57Zm.93,39.56V183h2v32.12Z"/><path class="cls-1" d="M294.19,215.13V170.78h2v44.35Z"/><path class="cls-1" d="M345.39,215.13V192c0-5-2.06-8-6.91-8-3.59,0-8,2.73-10,6v25.13h-2V192c0-5-2.06-8-6.92-8-3.59,0-7.84,2.79-10,6.05v25.07h-2V183h2v5.06c1.33-2.13,5.72-5.85,10.3-5.85,5.06,0,7.65,3.12,8.32,6.12a13.35,13.35,0,0,1,10.57-6.12c5.85,0,8.58,3.39,8.58,9.77v23.14Z"/></svg>